<?xml version="1.0" encoding="utf-8"?>
<!-- Generator: Adobe Illustrator 14.0.0, SVG Export Plug-In  -->
<!DOCTYPE svg PUBLIC "-//W3C//DTD SVG 1.0//EN" "http://www.w3.org/TR/2001/REC-SVG-20010904/DTD/svg10.dtd" [
	<!ENTITY ns_flows "http://ns.adobe.com/Flows/1.0/">
]>
<svg version="1.0"
	 xmlns="http://www.w3.org/2000/svg" xmlns:xlink="http://www.w3.org/1999/xlink" xmlns:a="http://ns.adobe.com/AdobeSVGViewerExtensions/3.0/"
	 x="0px" y="0px" width="800px" height="600px" viewBox="-44.44 -71.704 800 600" enable-background="new -44.44 -71.704 800 600"
	 xml:space="preserve">
<defs>
</defs>
<path d="M12.347,11.06c1.295-0.163,2.221-0.366,2.779-0.61c1-0.423,1.5-1.082,1.5-1.978c0-1.09-0.384-1.843-1.151-2.258
	s-1.893-0.623-3.378-0.623c-1.667,0-2.846,0.407-3.539,1.221c-0.495,0.603-0.825,1.416-0.99,2.441H0.854
	c0.147-2.327,0.801-4.24,1.961-5.737C4.663,1.172,7.834,0,12.33,0c2.926,0,5.524,0.578,7.797,1.733
	c2.272,1.156,3.408,3.337,3.408,6.543v12.207c0,0.847,0.016,1.872,0.049,3.076c0.049,0.912,0.187,1.53,0.415,1.855
	c0.228,0.326,0.569,0.594,1.025,0.806v1.025h-7.568c-0.212-0.537-0.358-1.042-0.439-1.514c-0.082-0.472-0.146-1.009-0.195-1.611
	c-0.966,1.042-2.08,1.929-3.34,2.661c-1.506,0.862-3.209,1.294-5.108,1.294c-2.423,0-4.424-0.688-6.004-2.063
	C0.79,24.638,0,22.689,0,20.166c0-3.271,1.271-5.64,3.812-7.104c1.394-0.797,3.443-1.367,6.149-1.709L12.347,11.06z M16.601,14.307
	c-0.445,0.277-0.895,0.5-1.349,0.671c-0.454,0.171-1.077,0.33-1.869,0.476L11.8,15.747c-1.484,0.261-2.551,0.578-3.198,0.952
	c-1.096,0.635-1.644,1.62-1.644,2.954c0,1.188,0.334,2.047,1.004,2.576c0.669,0.529,1.483,0.793,2.442,0.793
	c1.521,0,2.921-0.439,4.202-1.318c1.281-0.879,1.946-2.482,1.996-4.81V14.307z"/>
</svg>
