<?xml version="1.0" encoding="utf-8"?>
<!-- Generator: Adobe Illustrator 14.0.0, SVG Export Plug-In  -->
<!DOCTYPE svg PUBLIC "-//W3C//DTD SVG 1.0//EN" "http://www.w3.org/TR/2001/REC-SVG-20010904/DTD/svg10.dtd" [
	<!ENTITY ns_flows "http://ns.adobe.com/Flows/1.0/">
]>
<svg version="1.0"
	 xmlns="http://www.w3.org/2000/svg" xmlns:xlink="http://www.w3.org/1999/xlink" xmlns:a="http://ns.adobe.com/AdobeSVGViewerExtensions/3.0/"
	 x="0px" y="0px" width="800px" height="600px" viewBox="-73.811 -63.012 800 600" enable-background="new -73.811 -63.012 800 600"
	 xml:space="preserve">
<defs>
</defs>
<path d="M22.966,12.524c1.991,2.523,2.986,5.778,2.986,9.766c0,4.134-0.982,7.561-2.945,10.278
	c-1.963,2.718-4.704,4.077-8.221,4.077c-2.209,0-3.984-0.439-5.325-1.318c-0.802-0.521-1.669-1.432-2.601-2.734v3.345H0V0h6.958
	v12.793c0.884-1.237,1.859-2.181,2.924-2.832c1.261-0.813,2.867-1.221,4.816-1.221C18.22,8.74,20.976,10.002,22.966,12.524z
	 M17.15,28.735c1.001-1.448,1.502-3.353,1.502-5.713c0-1.888-0.247-3.45-0.738-4.688c-0.936-2.344-2.659-3.516-5.169-3.516
	c-2.544,0-4.292,1.147-5.244,3.442c-0.492,1.221-0.738,2.8-0.738,4.736c0,2.279,0.508,4.167,1.526,5.664
	c1.017,1.498,2.568,2.246,4.652,2.246C14.747,30.908,16.149,30.184,17.15,28.735z"/>
</svg>
