<?xml version="1.0" encoding="utf-8"?>
<!-- Generator: Adobe Illustrator 14.0.0, SVG Export Plug-In  -->
<!DOCTYPE svg PUBLIC "-//W3C//DTD SVG 1.0//EN" "http://www.w3.org/TR/2001/REC-SVG-20010904/DTD/svg10.dtd" [
	<!ENTITY ns_flows "http://ns.adobe.com/Flows/1.0/">
]>
<svg version="1.0"
	 xmlns="http://www.w3.org/2000/svg" xmlns:xlink="http://www.w3.org/1999/xlink" xmlns:a="http://ns.adobe.com/AdobeSVGViewerExtensions/3.0/"
	 x="0px" y="0px" width="800px" height="600px" viewBox="-103.083 -71.704 800 600"
	 enable-background="new -103.083 -71.704 800 600" xml:space="preserve">
<defs>
</defs>
<path d="M17.432,10.181c-0.13-0.993-0.465-1.888-1.003-2.686c-0.783-1.074-1.999-1.611-3.646-1.611c-2.35,0-3.957,1.164-4.821,3.491
	c-0.457,1.234-0.685,2.874-0.685,4.919c0,1.949,0.228,3.515,0.685,4.7c0.832,2.214,2.398,3.32,4.699,3.32
	c1.631,0,2.79-0.439,3.475-1.318s1.101-2.018,1.248-3.418h7.104c-0.163,2.116-0.929,4.118-2.297,6.006
	c-2.184,3.044-5.417,4.565-9.702,4.565c-4.285,0-7.438-1.27-9.458-3.809C1.01,21.802,0,18.51,0,14.464
	C0,9.9,1.116,6.348,3.348,3.809S8.659,0,12.586,0c3.34,0,6.072,0.749,8.199,2.246c2.126,1.498,3.384,4.143,3.776,7.935H17.432z"/>
</svg>
