<?xml version="1.0" encoding="utf-8"?>
<!-- Generator: Adobe Illustrator 14.0.0, SVG Export Plug-In  -->
<!DOCTYPE svg PUBLIC "-//W3C//DTD SVG 1.0//EN" "http://www.w3.org/TR/2001/REC-SVG-20010904/DTD/svg10.dtd" [
	<!ENTITY ns_flows "http://ns.adobe.com/Flows/1.0/">
]>
<svg version="1.0"
	 xmlns="http://www.w3.org/2000/svg" xmlns:xlink="http://www.w3.org/1999/xlink" xmlns:a="http://ns.adobe.com/AdobeSVGViewerExtensions/3.0/"
	 x="0px" y="0px" width="800px" height="600px" viewBox="-130.695 -63.012 800 600"
	 enable-background="new -130.695 -63.012 800 600" xml:space="preserve">
<defs>
</defs>
<path d="M15.82,9.753c1.253,0.708,2.271,1.689,3.052,2.942V0h7.056v35.938h-6.763v-3.687c-0.993,1.579-2.124,2.727-3.394,3.442
	s-2.849,1.074-4.736,1.074c-3.109,0-5.725-1.257-7.849-3.772S0,27.254,0,23.315c0-4.541,1.045-8.113,3.137-10.718
	c2.091-2.604,4.887-3.906,8.386-3.906C13.135,8.691,14.567,9.045,15.82,9.753z M17.529,28.711c1.025-1.465,1.538-3.361,1.538-5.688
	c0-3.255-0.822-5.583-2.466-6.982c-1.009-0.846-2.181-1.27-3.516-1.27c-2.035,0-3.528,0.769-4.48,2.307s-1.428,3.447-1.428,5.725
	c0,2.458,0.484,4.423,1.453,5.896c0.968,1.473,2.437,2.209,4.407,2.209C15.006,30.908,16.504,30.176,17.529,28.711z"/>
</svg>
