<?xml version="1.0" encoding="utf-8"?>
<!-- Generator: Adobe Illustrator 14.0.0, SVG Export Plug-In  -->
<!DOCTYPE svg PUBLIC "-//W3C//DTD SVG 1.0//EN" "http://www.w3.org/TR/2001/REC-SVG-20010904/DTD/svg10.dtd" [
	<!ENTITY ns_flows "http://ns.adobe.com/Flows/1.0/">
]>
<svg version="1.0"
	 xmlns="http://www.w3.org/2000/svg" xmlns:xlink="http://www.w3.org/1999/xlink" xmlns:a="http://ns.adobe.com/AdobeSVGViewerExtensions/3.0/"
	 x="0px" y="0px" width="800px" height="600px" viewBox="-160.847 -71.63 800 600" enable-background="new -160.847 -71.63 800 600"
	 xml:space="preserve">
<defs>
</defs>
<path d="M19.44,1.247c1.856,0.832,3.389,2.144,4.599,3.937c1.09,1.582,1.797,3.415,2.12,5.502c0.188,1.223,0.264,2.983,0.229,5.281
	H7.007c0.108,2.669,1.036,4.541,2.783,5.615c1.063,0.667,2.342,1.001,3.836,1.001c1.585,0,2.873-0.407,3.864-1.221
	c0.54-0.439,1.018-1.05,1.432-1.831h7.104c-0.188,1.579-1.047,3.182-2.58,4.81c-2.384,2.588-5.721,3.882-10.012,3.882
	c-3.542,0-6.666-1.091-9.374-3.274C1.354,22.766,0,19.214,0,14.294C0,9.685,1.222,6.15,3.666,3.69C6.109,1.23,9.282,0,13.182,0
	C15.498,0,17.584,0.416,19.44,1.247z M9.031,7.258C8.048,8.271,7.43,9.645,7.178,11.377h11.987
	c-0.126-1.847-0.744-3.249-1.854-4.205c-1.109-0.956-2.485-1.435-4.127-1.435C11.399,5.737,10.014,6.244,9.031,7.258z"/>
</svg>
