<?xml version="1.0" encoding="utf-8"?>
<!-- Generator: Adobe Illustrator 14.0.0, SVG Export Plug-In  -->
<!DOCTYPE svg PUBLIC "-//W3C//DTD SVG 1.0//EN" "http://www.w3.org/TR/2001/REC-SVG-20010904/DTD/svg10.dtd" [
	<!ENTITY ns_flows "http://ns.adobe.com/Flows/1.0/">
]>
<svg version="1.0"
	 xmlns="http://www.w3.org/2000/svg" xmlns:xlink="http://www.w3.org/1999/xlink" xmlns:a="http://ns.adobe.com/AdobeSVGViewerExtensions/3.0/"
	 x="0px" y="0px" width="800px" height="600px" viewBox="-205.769 -71.704 800 600"
	 enable-background="new -205.769 -71.704 800 600" xml:space="preserve">
<defs>
</defs>
<path d="M14.8,0.61c1.69,0.7,3.056,1.986,4.096,3.857V0.635h6.787v25.244c0,3.434-0.578,6.022-1.733,7.764
	c-1.986,2.995-5.794,4.492-11.426,4.492c-3.402,0-6.177-0.667-8.325-2.002c-2.148-1.335-3.337-3.329-3.564-5.981h7.568
	c0.195,0.813,0.513,1.399,0.952,1.758c0.749,0.635,2.01,0.952,3.784,0.952c2.506,0,4.183-0.838,5.029-2.515
	c0.553-1.074,0.83-2.881,0.83-5.42v-1.709c-0.667,1.14-1.384,1.994-2.148,2.563c-1.384,1.058-3.182,1.587-5.396,1.587
	c-3.418,0-6.148-1.2-8.191-3.601C1.021,21.367,0,18.115,0,14.014c0-3.955,0.983-7.279,2.95-9.973C4.917,1.347,7.705,0,11.313,0
	C12.646,0,13.809,0.204,14.8,0.61z M17.17,19.69c1.119-1.229,1.678-3.186,1.678-5.872c0-2.522-0.531-4.443-1.593-5.762
	s-2.483-1.978-4.266-1.978c-2.432,0-4.109,1.147-5.033,3.442c-0.486,1.221-0.729,2.727-0.729,4.517c0,1.546,0.259,2.922,0.778,4.126
	c0.94,2.246,2.625,3.369,5.057,3.369C14.682,21.533,16.051,20.919,17.17,19.69z"/>
</svg>
