<?xml version="1.0" encoding="utf-8"?>
<!-- Generator: Adobe Illustrator 14.0.0, SVG Export Plug-In  -->
<!DOCTYPE svg PUBLIC "-//W3C//DTD SVG 1.0//EN" "http://www.w3.org/TR/2001/REC-SVG-20010904/DTD/svg10.dtd" [
	<!ENTITY ns_flows "http://ns.adobe.com/Flows/1.0/">
]>
<svg version="1.0"
	 xmlns="http://www.w3.org/2000/svg" xmlns:xlink="http://www.w3.org/1999/xlink" xmlns:a="http://ns.adobe.com/AdobeSVGViewerExtensions/3.0/"
	 x="0px" y="0px" width="800px" height="600px" viewBox="-237.995 -63.085 800 600"
	 enable-background="new -237.995 -63.085 800 600" xml:space="preserve">
<defs>
</defs>
<path d="M19.076,9.4c1.336,0.57,2.435,1.442,3.294,2.614c0.729,0.994,1.175,2.017,1.337,3.067c0.162,1.05,0.243,2.765,0.243,5.143
	v15.639h-7.104V19.659c0-1.434-0.243-2.591-0.727-3.47c-0.63-1.238-1.826-1.858-3.586-1.858c-1.826,0-3.211,0.615-4.157,1.846
	c-0.945,1.23-1.417,2.986-1.417,5.267v14.421H0V0h6.958v12.695c1.005-1.546,2.167-2.625,3.488-3.235
	c1.32-0.61,2.71-0.916,4.169-0.916C16.252,8.545,17.739,8.83,19.076,9.4z"/>
</svg>
