<?xml version="1.0" encoding="utf-8"?>
<!-- Generator: Adobe Illustrator 14.0.0, SVG Export Plug-In  -->
<!DOCTYPE svg PUBLIC "-//W3C//DTD SVG 1.0//EN" "http://www.w3.org/TR/2001/REC-SVG-20010904/DTD/svg10.dtd" [
	<!ENTITY ns_flows "http://ns.adobe.com/Flows/1.0/">
]>
<svg version="1.0"
	 xmlns="http://www.w3.org/2000/svg" xmlns:xlink="http://www.w3.org/1999/xlink" xmlns:a="http://ns.adobe.com/AdobeSVGViewerExtensions/3.0/"
	 x="0px" y="0px" width="800px" height="600px" viewBox="-279.353 -62.744 800 600"
	 enable-background="new -279.353 -62.744 800 600" xml:space="preserve">
<defs>
</defs>
<path d="M0,41.309c0.391,0.032,0.667,0.053,0.83,0.061c0.163,0.008,0.309,0.012,0.439,0.012c0.684,0,1.2-0.167,1.55-0.5
	c0.35-0.334,0.525-0.981,0.525-1.941V9.717h6.958v29.346c0,2.686-0.529,4.671-1.587,5.957c-1.058,1.286-3.133,1.929-6.226,1.929
	c-0.212,0-0.525-0.008-0.94-0.024C1.135,46.907,0.618,46.891,0,46.875V41.309z M10.303,6.421H3.345V0h6.958V6.421z"/>
</svg>
