<?xml version="1.0" encoding="utf-8"?>
<!-- Generator: Adobe Illustrator 14.0.0, SVG Export Plug-In  -->
<!DOCTYPE svg PUBLIC "-//W3C//DTD SVG 1.0//EN" "http://www.w3.org/TR/2001/REC-SVG-20010904/DTD/svg10.dtd" [
	<!ENTITY ns_flows "http://ns.adobe.com/Flows/1.0/">
]>
<svg version="1.0"
	 xmlns="http://www.w3.org/2000/svg" xmlns:xlink="http://www.w3.org/1999/xlink" xmlns:a="http://ns.adobe.com/AdobeSVGViewerExtensions/3.0/"
	 x="0px" y="0px" width="800px" height="600px" viewBox="-337.849 -71.752 800 600"
	 enable-background="new -337.849 -71.752 800 600" xml:space="preserve">
<defs>
</defs>
<path d="M33.325,0.684c1.139,0.456,2.173,1.253,3.101,2.393c0.749,0.928,1.253,2.067,1.514,3.418
	c0.163,0.896,0.244,2.206,0.244,3.931l-0.049,16.772h-7.129V10.254c0-1.009-0.163-1.839-0.488-2.49
	C29.899,6.527,28.76,5.908,27.1,5.908c-1.921,0-3.247,0.798-3.979,2.393c-0.375,0.847-0.562,1.864-0.562,3.052v15.845h-7.007V11.353
	c0-1.579-0.163-2.726-0.488-3.442c-0.586-1.286-1.733-1.929-3.442-1.929c-1.986,0-3.32,0.643-4.004,1.929
	c-0.375,0.732-0.562,1.823-0.562,3.271v16.016H0V0.635h6.763v3.882c0.862-1.383,1.676-2.368,2.441-2.954
	C10.555,0.521,12.305,0,14.453,0c2.034,0,3.678,0.448,4.932,1.343c1.009,0.83,1.774,1.896,2.295,3.198
	c0.911-1.562,2.042-2.71,3.394-3.442C26.505,0.366,28.101,0,29.858,0C31.03,0,32.186,0.228,33.325,0.684z"/>
</svg>
