<?xml version="1.0" encoding="utf-8"?>
<!-- Generator: Adobe Illustrator 14.0.0, SVG Export Plug-In  -->
<!DOCTYPE svg PUBLIC "-//W3C//DTD SVG 1.0//EN" "http://www.w3.org/TR/2001/REC-SVG-20010904/DTD/svg10.dtd" [
	<!ENTITY ns_flows "http://ns.adobe.com/Flows/1.0/">
]>
<svg version="1.0"
	 xmlns="http://www.w3.org/2000/svg" xmlns:xlink="http://www.w3.org/1999/xlink" xmlns:a="http://ns.adobe.com/AdobeSVGViewerExtensions/3.0/"
	 x="0px" y="0px" width="800px" height="600px" viewBox="-382.478 -71.704 800 600"
	 enable-background="new -382.478 -71.704 800 600" xml:space="preserve">
<defs>
</defs>
<path d="M21.41,2.161c1.742,1.44,2.613,3.829,2.613,7.166v17.92h-7.129V11.06c0-1.399-0.186-2.474-0.557-3.223
	c-0.679-1.367-1.972-2.051-3.878-2.051c-2.343,0-3.95,1.001-4.823,3.003c-0.453,1.058-0.679,2.409-0.679,4.053v14.404H0V0.684h6.738
	v3.882c0.891-1.367,1.734-2.352,2.528-2.954C10.692,0.537,12.5,0,14.688,0C17.427,0,19.667,0.72,21.41,2.161z"/>
</svg>
