<?xml version="1.0" encoding="utf-8"?>
<!-- Generator: Adobe Illustrator 14.0.0, SVG Export Plug-In  -->
<!DOCTYPE svg PUBLIC "-//W3C//DTD SVG 1.0//EN" "http://www.w3.org/TR/2001/REC-SVG-20010904/DTD/svg10.dtd" [
	<!ENTITY ns_flows "http://ns.adobe.com/Flows/1.0/">
]>
<svg version="1.0"
	 xmlns="http://www.w3.org/2000/svg" xmlns:xlink="http://www.w3.org/1999/xlink" xmlns:a="http://ns.adobe.com/AdobeSVGViewerExtensions/3.0/"
	 x="0px" y="0px" width="800px" height="600px" viewBox="-411.335 -71.484 800 600"
	 enable-background="new -411.335 -71.484 800 600" xml:space="preserve">
<defs>
</defs>
<path d="M23.828,24.21c-2.246,2.772-5.656,4.159-10.229,4.159c-4.574,0-7.983-1.386-10.229-4.159S0,18.1,0,14.197
	c0-3.837,1.123-7.163,3.369-9.977S9.024,0,13.599,0c4.573,0,7.983,1.407,10.229,4.22s3.369,6.139,3.369,9.977
	C27.197,18.1,26.074,21.438,23.828,24.21z M18.262,20.365c1.09-1.446,1.636-3.502,1.636-6.168s-0.546-4.717-1.636-6.155
	c-1.091-1.438-2.653-2.158-4.688-2.158c-2.035,0-3.602,0.719-4.699,2.158c-1.1,1.438-1.648,3.49-1.648,6.155
	s0.549,4.722,1.648,6.168c1.098,1.447,2.664,2.169,4.699,2.169C15.608,22.534,17.171,21.812,18.262,20.365z"/>
</svg>
