<?xml version="1.0" encoding="utf-8"?>
<!-- Generator: Adobe Illustrator 14.0.0, SVG Export Plug-In  -->
<!DOCTYPE svg PUBLIC "-//W3C//DTD SVG 1.0//EN" "http://www.w3.org/TR/2001/REC-SVG-20010904/DTD/svg10.dtd" [
	<!ENTITY ns_flows "http://ns.adobe.com/Flows/1.0/">
]>
<svg version="1.0"
	 xmlns="http://www.w3.org/2000/svg" xmlns:xlink="http://www.w3.org/1999/xlink" xmlns:a="http://ns.adobe.com/AdobeSVGViewerExtensions/3.0/"
	 x="0px" y="0px" width="800px" height="600px" viewBox="-443.317 -71.752 800 600"
	 enable-background="new -443.317 -71.752 800 600" xml:space="preserve">
<defs>
</defs>
<path d="M22.574,3.442c2.171,2.295,3.256,5.664,3.256,10.107c0,4.688-1.061,8.26-3.183,10.718c-2.121,2.458-4.853,3.687-8.194,3.687
	c-2.13,0-3.899-0.529-5.308-1.587c-0.77-0.586-1.523-1.44-2.261-2.563v13.867H0V0.586h6.665v3.931
	C7.418,3.361,8.221,2.45,9.073,1.782C10.629,0.594,12.479,0,14.626,0C17.754,0,20.403,1.147,22.574,3.442z M17.234,8.447
	c-0.946-1.579-2.479-2.368-4.601-2.368c-2.549,0-4.3,1.196-5.253,3.589c-0.494,1.27-0.74,2.881-0.74,4.834
	c0,3.093,0.83,5.266,2.489,6.519c0.986,0.732,2.154,1.099,3.503,1.099c1.957,0,3.449-0.749,4.478-2.246
	c1.027-1.497,1.542-3.491,1.542-5.981C18.652,11.841,18.18,10.026,17.234,8.447z"/>
</svg>
