<?xml version="1.0" encoding="utf-8"?>
<!-- Generator: Adobe Illustrator 14.0.0, SVG Export Plug-In  -->
<!DOCTYPE svg PUBLIC "-//W3C//DTD SVG 1.0//EN" "http://www.w3.org/TR/2001/REC-SVG-20010904/DTD/svg10.dtd" [
	<!ENTITY ns_flows "http://ns.adobe.com/Flows/1.0/">
]>
<svg version="1.0"
	 xmlns="http://www.w3.org/2000/svg" xmlns:xlink="http://www.w3.org/1999/xlink" xmlns:a="http://ns.adobe.com/AdobeSVGViewerExtensions/3.0/"
	 x="0px" y="0px" width="800px" height="600px" viewBox="-472.272 -71.63 800 600" enable-background="new -472.272 -71.63 800 600"
	 xml:space="preserve">
<defs>
</defs>
<path d="M16.675,1.638c0.797,0.619,1.611,1.638,2.441,3.056V0.757h6.714v37.109h-6.885V24.023c-0.521,1.074-1.412,2.031-2.674,2.869
	c-1.261,0.838-2.982,1.257-5.163,1.257c-3.076,0-5.697-1.23-7.861-3.689C1.082,22,0,18.718,0,14.612
	c0-4.431,1.086-7.974,3.26-10.629C5.432,1.328,8.113,0,11.304,0C13.517,0,15.308,0.546,16.675,1.638z M18.162,19.112
	c0.652-1.353,0.979-3.064,0.979-5.135c0-1.629-0.277-3.089-0.832-4.376c-0.994-2.315-2.739-3.472-5.235-3.472
	c-1.762,0-3.177,0.677-4.244,2.029c-1.068,1.353-1.603,3.407-1.603,6.162c0,1.842,0.244,3.35,0.734,4.523
	c0.913,2.233,2.608,3.35,5.088,3.35C15.446,22.192,17.15,21.166,18.162,19.112z"/>
</svg>
