<?xml version="1.0" encoding="utf-8"?>
<!-- Generator: Adobe Illustrator 14.0.0, SVG Export Plug-In  -->
<!DOCTYPE svg PUBLIC "-//W3C//DTD SVG 1.0//EN" "http://www.w3.org/TR/2001/REC-SVG-20010904/DTD/svg10.dtd" [
	<!ENTITY ns_flows "http://ns.adobe.com/Flows/1.0/">
]>
<svg version="1.0"
	 xmlns="http://www.w3.org/2000/svg" xmlns:xlink="http://www.w3.org/1999/xlink" xmlns:a="http://ns.adobe.com/AdobeSVGViewerExtensions/3.0/"
	 x="0px" y="0px" width="800px" height="600px" viewBox="-504.523 -71.704 800 600"
	 enable-background="new -504.523 -71.704 800 600" xml:space="preserve">
<defs>
</defs>
<path d="M14.855,0.012c0.09,0.008,0.289,0.021,0.599,0.037v7.129c-0.439-0.049-0.83-0.081-1.172-0.098
	c-0.342-0.016-0.619-0.024-0.83-0.024c-2.8,0-4.68,0.912-5.64,2.734c-0.537,1.025-0.806,2.604-0.806,4.736v12.72H0V0.635h6.641
	v4.639C7.715,3.5,8.65,2.287,9.448,1.636C10.75,0.545,12.442,0,14.526,0C14.656,0,14.767,0.004,14.855,0.012z"/>
</svg>
