<?xml version="1.0" encoding="utf-8"?>
<!-- Generator: Adobe Illustrator 14.0.0, SVG Export Plug-In  -->
<!DOCTYPE svg PUBLIC "-//W3C//DTD SVG 1.0//EN" "http://www.w3.org/TR/2001/REC-SVG-20010904/DTD/svg10.dtd" [
	<!ENTITY ns_flows "http://ns.adobe.com/Flows/1.0/">
]>
<svg version="1.0"
	 xmlns="http://www.w3.org/2000/svg" xmlns:xlink="http://www.w3.org/1999/xlink" xmlns:a="http://ns.adobe.com/AdobeSVGViewerExtensions/3.0/"
	 x="0px" y="0px" width="800px" height="600px" viewBox="-522.395 -71.582 800 600"
	 enable-background="new -522.395 -71.582 800 600" xml:space="preserve">
<defs>
</defs>
<path d="M7.056,18.872c0.147,1.237,0.466,2.116,0.957,2.637c0.866,0.928,2.469,1.392,4.808,1.392c1.374,0,2.466-0.203,3.275-0.61
	c0.81-0.407,1.214-1.017,1.214-1.831c0-0.781-0.326-1.375-0.979-1.782c-0.652-0.407-3.078-1.106-7.278-2.1
	c-3.024-0.749-5.155-1.685-6.392-2.808c-1.237-1.106-1.855-2.702-1.855-4.785c0-2.458,0.966-4.569,2.899-6.335
	C5.638,0.883,8.357,0,11.864,0c3.327,0,6.039,0.664,8.135,1.99c2.096,1.327,3.299,3.618,3.609,6.873H16.65
	c-0.098-0.895-0.351-1.603-0.759-2.124c-0.768-0.944-2.073-1.416-3.917-1.416c-1.519,0-2.6,0.236-3.244,0.708
	C8.086,6.502,7.764,7.056,7.764,7.69c0,0.798,0.343,1.375,1.028,1.733c0.686,0.375,3.106,1.018,7.265,1.929
	c2.771,0.651,4.85,1.636,6.233,2.954c1.367,1.335,2.051,3.003,2.051,5.005c0,2.637-0.982,4.79-2.948,6.458
	c-1.965,1.668-5.002,2.502-9.112,2.502c-4.191,0-7.286-0.883-9.283-2.649C0.999,23.857,0,21.606,0,18.872H7.056z"/>
</svg>
