<?xml version="1.0" encoding="utf-8"?>
<!-- Generator: Adobe Illustrator 14.0.0, SVG Export Plug-In  -->
<!DOCTYPE svg PUBLIC "-//W3C//DTD SVG 1.0//EN" "http://www.w3.org/TR/2001/REC-SVG-20010904/DTD/svg10.dtd" [
	<!ENTITY ns_flows "http://ns.adobe.com/Flows/1.0/">
]>
<svg version="1.0"
	 xmlns="http://www.w3.org/2000/svg" xmlns:xlink="http://www.w3.org/1999/xlink" xmlns:a="http://ns.adobe.com/AdobeSVGViewerExtensions/3.0/"
	 x="0px" y="0px" width="800px" height="600px" viewBox="-568.317 -72.338 800 600"
	 enable-background="new -568.317 -72.338 800 600" xml:space="preserve">
<defs>
</defs>
<path d="M7.129,0v16.04c0,1.514,0.178,2.653,0.534,3.418c0.632,1.351,1.871,2.026,3.717,2.026c2.364,0,3.984-0.96,4.859-2.881
	c0.453-1.042,0.68-2.417,0.68-4.126V0h7.056v26.611h-6.763v-3.76c-0.064,0.082-0.228,0.326-0.486,0.732
	c-0.26,0.407-0.568,0.765-0.926,1.074c-1.087,0.977-2.139,1.644-3.152,2.002c-1.015,0.358-2.203,0.537-3.567,0.537
	c-3.927,0-6.572-1.416-7.937-4.248C0.381,21.387,0,19.084,0,16.04V0H7.129z"/>
</svg>
