<?xml version="1.0" encoding="utf-8"?>
<!-- Generator: Adobe Illustrator 14.0.0, SVG Export Plug-In  -->
<!DOCTYPE svg PUBLIC "-//W3C//DTD SVG 1.0//EN" "http://www.w3.org/TR/2001/REC-SVG-20010904/DTD/svg10.dtd" [
	<!ENTITY ns_flows "http://ns.adobe.com/Flows/1.0/">
]>
<svg version="1.0"
	 xmlns="http://www.w3.org/2000/svg" xmlns:xlink="http://www.w3.org/1999/xlink" xmlns:a="http://ns.adobe.com/AdobeSVGViewerExtensions/3.0/"
	 x="0px" y="0px" width="800px" height="600px" viewBox="-138.007 -132.338 800 600"
	 enable-background="new -138.007 -132.338 800 600" xml:space="preserve">
<defs>
</defs>
<path d="M3.796,31.714l0.879,0.049c0.684,0.032,1.334,0.008,1.953-0.073c0.618-0.082,1.139-0.269,1.562-0.562
	c0.407-0.277,0.785-0.854,1.135-1.733c0.35-0.879,0.5-1.416,0.452-1.611L0,0h7.739l5.811,19.629L19.043,0h7.397l-9.123,26.172
	c-1.763,5.045-3.158,8.174-4.185,9.387c-1.026,1.212-3.08,1.819-6.159,1.819c-0.619,0-1.116-0.004-1.491-0.012
	c-0.375-0.008-0.938-0.037-1.687-0.085V31.714z"/>
</svg>
